<svg xmlns="http://www.w3.org/2000/svg" xmlns:xlink="http://www.w3.org/1999/xlink" width="63.743" height="67.585" viewBox="0 0 63.743 67.585">
  <defs>
    <filter id="Sustracción_1" x="0" y="0" width="63.743" height="67.585" filterUnits="userSpaceOnUse">
      <feOffset input="SourceAlpha"/>
      <feGaussianBlur stdDeviation="7.5" result="blur"/>
      <feFlood flood-color="#fff" flood-opacity="0.49"/>
      <feComposite operator="in" in2="blur"/>
      <feComposite in="SourceGraphic"/>
    </filter>
  </defs>
  <g id="Grupo_16" data-name="Grupo 16" transform="translate(-117.192 -231.272)">
    <g id="Elipse_1" data-name="Elipse 1" transform="translate(119.128 235.128)" fill="#3475e5" stroke="#fff" stroke-width="1">
      <circle cx="30" cy="30" r="30" stroke="none"/>
      <circle cx="30" cy="30" r="29.5" fill="none"/>
    </g>
    <g transform="matrix(1, 0, 0, 1, 117.19, 231.27)" filter="url(#Sustracción_1)">
      <path id="Sustracción_1-2" data-name="Sustracción 1" d="M9.373,22.585c-.664,0-4.887-4.5-5.066-4.692C4.263,17.845,0,13.054,0,8.857A9.136,9.136,0,0,1,9.373,0a9.135,9.135,0,0,1,9.37,8.857c0,3.974-4.208,8.986-4.25,9.036C14.321,18.085,10.267,22.585,9.373,22.585Zm0-18.194a3.559,3.559,0,0,0-3.652,3.45,3.56,3.56,0,0,0,3.652,3.452,3.559,3.559,0,0,0,3.65-3.452A3.558,3.558,0,0,0,9.373,4.391Z" transform="translate(22.5 22.5)" fill="#fff"/>
    </g>
  </g>
</svg>
